<?xml version="1.0" standalone="no"?>
<!DOCTYPE svg PUBLIC "-//W3C//DTD SVG 20010904//EN"
 "http://www.w3.org/TR/2001/REC-SVG-20010904/DTD/svg10.dtd">
<svg version="1.0" xmlns="http://www.w3.org/2000/svg"
 width="476.000000pt" height="476.000000pt" viewBox="0 0 476.000000 476.000000"
 preserveAspectRatio="xMidYMid meet">
<metadata>
Created by potrace 1.11, written by Peter Selinger 2001-2013
</metadata>
<g transform="translate(0.000000,476.000000) scale(0.100000,-0.100000)"
fill="#000000" stroke="none">
<path d="M1330 3861 c0 -345 -2 -390 -16 -395 -9 -3 -202 -6 -430 -6 l-414 0
0 -234 0 -233 390 -5 c214 -3 392 -7 395 -10 7 -7 -70 -187 -159 -373 -180
-374 -390 -692 -639 -967 l-79 -88 108 -207 c100 -194 117 -222 136 -223 12 0
124 139 219 272 156 218 302 476 437 773 l64 140 -6 -295 c-3 -162 -9 -555
-12 -872 l-7 -578 187 0 186 0 0 228 c0 125 -5 528 -10 896 -6 368 -9 671 -7
672 2 2 18 -33 37 -79 53 -130 201 -420 283 -557 l76 -125 -20 -21 -20 -21
106 -204 c111 -212 129 -240 144 -224 18 21 283 389 339 472 141 210 221 357
317 578 26 61 50 112 53 115 5 5 -3 -717 -15 -1372 l-6 -358 186 0 c102 0 188
3 190 8 2 4 -1 407 -7 897 -7 490 -11 891 -11 892 1 2 35 -72 75 -163 133
-301 286 -560 490 -832 125 -167 167 -215 184 -209 11 4 235 482 236 503 0 7
-17 27 -37 45 -151 131 -394 435 -555 694 -109 175 -318 569 -307 580 2 2 169
6 372 10 l367 8 0 233 0 234 -148 0 c-82 0 -264 3 -405 7 l-257 6 -2 386 -3
386 -177 3 -178 2 0 -388 0 -389 -112 -6 c-146 -9 -794 -9 -1015 0 l-173 6 0
389 0 388 -175 0 -175 0 0 -389z m1575 -883 c16 -16 -183 -445 -305 -658 -86
-149 -216 -350 -227 -350 -12 1 -142 173 -230 305 -109 163 -209 337 -309 537
l-84 167 93 4 c161 6 1055 2 1062 -5z"/>
</g>
</svg>
